#!OML:ASF E:\emotionWalksFemale\Project 1\Capture day 1\Session 1\Female1.ASF
:FULLY-SPECIFIED
:DEGREES
1156
root 22.3012 15.6303 -17.053 360.611 -28.8676 361.411
lowerback 7.50923 -0.894078 0.721093
upperback -4.10313 -1.06546 0.773979
thorax -8.5534 -0.538341 0.57145
lowerneck -6.32863 -5.0389 -11.4955
upperneck 9.63846 -7.23366 14.1935
head 4.85434 -3.26892 5.86956
rclavicle 7.82715e-015 1.51076e-014
rhumerus -45.5442 2.33361 -76.6189
rradius 36.7552
rwrist 13.4934
rhand -2.10982 -52.238
rfingers 7.12502
rthumb 23.5681 -80.8138
lclavicle 7.82715e-015 1.51076e-014
lhumerus -36.3936 3.01533 77.5302
lradius 48.4
lwrist -4.3315
lhand -5.39892 -32.0269
lfingers 7.12502
lthumb 20.4101 -3.07957
rfemur -5.78369 16.7506 32.1253
rtibia 13.9661
rfoot -11.8606 -36.5178
rtoes 27.4205
lfemur -11.3726 5.33405 -16.7963
ltibia 63.5523
lfoot 1.01774 2.43977
ltoes -23.7715
1157
root 22.2315 15.6145 -16.945 360.732 -29.4435 361.372
lowerback 7.49796 -0.826848 0.671
upperback -4.1486 -0.979562 0.792784
thorax -8.59507 -0.493139 0.607266
lowerneck -6.36206 -4.90215 -11.6535
upperneck 9.62326 -7.0443 14.3584
head 4.84129 -3.17296 5.96547
rclavicle 1.34701e-013 1.98785e-014
rhumerus -45.0244 3.09169 -77.1238
rradius 37.0826
rwrist 12.9442
rhand -3.79659 -51.1652
rfingers 7.12502
rthumb 21.9493 -79.9399
lclavicle 1.34701e-013 1.98785e-014
lhumerus -37.0257 3.44265 77.4727
lradius 47.7375
lwrist -4.64016
lhand -5.75072 -32.5646
lfingers 7.12502
lthumb 20.072 -3.58145
rfemur -5.489 17.0294 32.4082
rtibia 14.3557
rfoot -11.9626 -36.4689
rtoes 26.149
lfemur -12.8483 5.40601 -16.8417
ltibia 64.0582
lfoot -0.783955 2.72396
ltoes -24.5096
1158
root 22.164 15.5992 -16.8315 360.725 -30.0048 361.184
lowerback 7.50146 -0.754724 0.972155
upperback -4.05421 -0.855018 0.722524
thorax -8.50126 -0.45178 0.344096
lowerneck -6.36982 -4.80731 -11.5898
upperneck 9.80885 -6.9235 14.2276
head 4.87485 -3.1158 5.92322
rclavicle -4.85035e-014 -7.95139e-016
rhumerus -44.3136 3.40558 -77.5879
rradius 37.2541
rwrist 12.8668
rhand -5.02878 -51.1287
rfingers 7.12502
rthumb 20.7658 -80.0376
lclavicle -4.85035e-014 -7.95139e-016
lhumerus -37.684 3.8129 77.3503
lradius 47.3277
lwrist -5.0649
lhand -1.56519 -31.4674
lfingers 7.12502
lthumb 24.0904 -2.95971
rfemur -5.0026 17.0847 32.8561
rtibia 14.8522
rfoot -12.4526 -36.2595
rtoes 25.5536
lfemur -14.0538 5.36795 -16.7712
ltibia 64.3709
lfoot -2.53351 3.03513
ltoes -25.5671
1159
root 22.0968 15.5887 -16.7114 360.688 -30.6889 361.005
lowerback 7.50893 -0.643137 1.22493
upperback -3.92682 -0.682184 0.666854
thorax -8.37139 -0.382828 0.116355
lowerneck -6.38597 -4.75618 -11.4683
upperneck 10.0087 -6.86147 14.0323
head 4.91827 -3.08808 5.8451
rclavicle 9.27579e-014 1.70955e-014
rhumerus -43.4391 3.67747 -78.0773
rradius 37.2867
rwrist 13.0586
rhand -4.44993 -51.9354
rfingers 7.12502
rthumb 21.3218 -80.7824
lclavicle 9.27579e-014 1.70955e-014
lhumerus -38.239 4.15902 77.1891
lradius 46.8485
lwrist -5.53109
lhand -1.00534 -31.3958
lfingers 7.12502
lthumb 24.6271 -2.96019
rfemur -4.49845 17.0774 33.2607
rtibia 15.3865
rfoot -12.8784 -35.8942
rtoes 24.6352
lfemur -15.1697 5.21419 -16.7715
ltibia 64.5006
lfoot -4.25696 3.52488
ltoes -25.9585
1160
root 22.033 15.5772 -16.5967 360.733 -31.221 360.976
lowerback 7.53522 -0.541195 1.28754
upperback -3.88232 -0.543493 0.599512
thorax -8.33881 -0.320466 -0.0104649
lowerneck -6.5912 -4.67493 -11.3094
upperneck 9.9113 -6.74003 14.0525
head 4.90342 -3.01493 5.83023
rclavicle -2.81529e-014 -1.35174e-014
rhumerus -42.6435 4.08696 -78.6362
rradius 37.3415
rwrist 12.994
rhand -4.32193 -52.0052
rfingers 7.12502
rthumb 21.4448 -80.8383
lclavicle -2.81529e-014 -1.35174e-014
lhumerus -38.6032 4.20848 77.0787
lradius 46.0927
lwrist -5.67219
lhand -2.13086 -32.4394
lfingers 7.12502
lthumb 23.5479 -3.86094
rfemur -4.16805 17.2236 33.4739
rtibia 15.8621
rfoot -13.2058 -35.8
rtoes 23.4435
lfemur -16.5122 4.85661 -16.9349
ltibia 64.4713
lfoot -5.84245 4.11773
ltoes -25.7545
1161
root 21.9726 15.5593 -16.487 360.775 -31.6784 360.935
lowerback 7.66137 -0.433531 1.48314
upperback -3.88485 -0.384295 0.474937
thorax -8.41629 -0.257912 -0.274341
lowerneck -6.48034 -4.63488 -11.1596
upperneck 10.098 -6.7024 13.8218
head 4.92243 -3.00497 5.73596
rclavicle -1.23246e-014 2.38542e-015
rhumerus -42.0411 4.44218 -79.1502
rradius 37.6498
rwrist 12.9982
rhand -4.76885 -51.5396
rfingers 7.12502
rthumb 21.0155 -80.421
lclavicle -1.23246e-014 2.38542e-015
lhumerus -39.0992 4.3153 76.8959
lradius 45.4532
lwrist -5.86497
lhand -2.90257 -33.5719
lfingers 7.12502
lthumb 22.8075 -4.9003
rfemur -3.85911 17.29 33.6914
rtibia 16.3223
rfoot -13.7538 -35.7114
rtoes 22.9089
lfemur -17.8772 4.4902 -17.0557
ltibia 64.2941
lfoot -7.35363 4.86605
ltoes -25.5592
1162
root 21.9095 15.5379 -16.3707 360.775 -32.3766 360.774
lowerback 7.88493 -0.297359 1.68713
upperback -3.93975 -0.172739 0.480541
thorax -8.60439 -0.167566 -0.413186
lowerneck -6.37737 -4.57113 -11.0957
upperneck 10.4244 -6.62095 13.4793
head 4.97873 -2.98084 5.62446
rclavicle 8.20235e-014 6.36111e-015
rhumerus -41.5942 5.02463 -79.561
rradius 37.9935
rwrist 13.0063
rhand -4.54342 -51.6369
rfingers 7.12502
rthumb 21.232 -80.4941
lclavicle 8.20235e-014 6.36111e-015
lhumerus -39.9346 4.82088 76.7178
lradius 44.8516
lwrist -6.18847
lhand -3.68603 -34.1767
lfingers 7.12502
lthumb 22.0554 -5.41436
rfemur -3.45223 17.2141 34.0335
rtibia 16.8626
rfoot -14.2326 -35.4067
rtoes 22.158
lfemur -18.9692 4.27516 -17.0376
ltibia 63.9478
lfoot -8.89624 5.63006
ltoes -24.7263
1163
root 21.8435 15.5221 -16.2537 360.839 -33.0439 360.641
lowerback 7.99204 -0.24101 1.69654
upperback -4.03632 -0.0813592 0.625232
thorax -8.77013 -0.120682 -0.278198
lowerneck -5.9965 -4.39244 -11.3188
upperneck 10.375 -6.36473 13.3476
head 4.86719 -2.88549 5.64584
rclavicle 5.81197e-014 3.18055e-015
rhumerus -41.1355 5.89438 -79.9097
rradius 38.266
rwrist 12.9537
rhand -4.28057 -52.168
rfingers 7.12502
rthumb 21.4845 -80.9966
lclavicle 5.81197e-014 3.18055e-015
lhumerus -40.7696 5.57648 76.5991
lradius 43.9937
lwrist -6.61746
lhand -5.01485 -34.6972
lfingers 7.12502
lthumb 20.7791 -5.78977
rfemur -3.11685 17.2035 34.3178
rtibia 17.4292
rfoot -14.831 -35.1523
rtoes 21.4011
lfemur -20.0519 3.92251 -17.0457
ltibia 63.4042
lfoot -10.1758 6.25568
ltoes -23.063
1164
root 21.7787 15.5113 -16.1411 360.961 -33.639 360.67
lowerback 7.94173 -0.23534 1.61693
upperback -4.04122 -0.0760373 0.730669
thorax -8.74535 -0.109984 -0.12267
lowerneck -6.19345 -4.21829 -11.5348
upperneck 10.6257 -6.08236 13.1635
head 4.94118 -2.75572 5.64373
rclavicle -1.24166e-013 -1.63003e-014
rhumerus -40.3108 6.74693 -80.1982
rradius 38.5
rwrist 13.1539
rhand -5.06359 -53.0624
rfingers 7.12502
rthumb 20.7323 -81.975
lclavicle -1.24166e-013 -1.63003e-014
lhumerus -41.3058 6.64219 76.3457
lradius 43.1181
lwrist -7.3729
lhand -5.81631 -34.8029
lfingers 7.12502
lthumb 20.0089 -5.81313
rfemur -2.8945 17.2255 34.394
rtibia 17.9022
rfoot -15.2991 -34.8291
rtoes 20.6401
lfemur -21.2691 3.52918 -17.2118
ltibia 62.6678
lfoot -11.037 6.96103
ltoes -19.7184
1165
root 21.7141 15.4987 -16.026 360.912 -34.454 360.792
lowerback 8.10109 -0.104583 1.52022
upperback -4.02152 0.0930042 0.748805
thorax -8.81491 -0.0217506 -0.0749184
lowerneck -6.53105 -4.15898 -11.6245
upperneck 10.9079 -5.95278 12.9345
head 5.06435 -2.69384 5.59199
rclavicle 8.28684e-014 8.34896e-015
rhumerus -39.525 7.48656 -80.4482
rradius 38.6141
rwrist 13.0723
rhand -7.06255 -54.6936
rfingers 7.12502
rthumb 18.8107 -83.8041
lclavicle 8.28684e-014 8.34896e-015
lhumerus -41.9338 7.54474 76.0359
lradius 42.5329
lwrist -7.97244
lhand -5.34057 -33.753
lfingers 7.12502
lthumb 20.4662 -4.81163
rfemur -2.48147 17.1949 34.3865
rtibia 18.2601
rfoot -15.4602 -34.303
rtoes 19.5236
lfemur -22.2304 3.31075 -17.4556
ltibia 61.7224
lfoot -11.8743 7.98051
ltoes -17.1672
1166
root 21.6495 15.484 -15.9056 360.779 -35.1135 360.775
lowerback 8.43114 0.0545623 1.61622
upperback -4.04321 0.321455 0.691157
thorax -9.02899 0.0803223 -0.226173
lowerneck -6.64297 -4.19753 -11.3692
upperneck 11.0471 -5.99386 12.6088
head 5.11429 -2.71644 5.43858
rclavicle 4.62423e-014 5.1684e-015
rhumerus -39.0302 7.80776 -80.6712
rradius 38.8307
rwrist 13.2831
rhand -6.75603 -54.7527
rfingers 7.12502
rthumb 19.1055 -83.8343
lclavicle 4.62423e-014 5.1684e-015
lhumerus -42.547 7.81622 75.757
lradius 41.8504
lwrist -8.32399
lhand -4.74377 -32.8026
lfingers 7.12502
lthumb 21.0396 -3.92387
rfemur -1.843 17.1317 34.5523
rtibia 18.5364
rfoot -15.7313 -33.9759
rtoes 18.6246
lfemur -22.962 2.84714 -17.5424
ltibia 60.6028
lfoot -13.0214 9.03489
ltoes -18.662
1167
root 21.5846 15.469 -15.7824 360.755 -35.3989 360.672
lowerback 8.5867 0.0850532 1.81913
upperback -4.04603 0.386569 0.634222
thorax -9.12148 0.0971437 -0.411702
lowerneck -6.60507 -4.17052 -11.1375
upperneck 10.9641 -5.96362 12.4858
head 5.06814 -2.7008 5.36144
rclavicle 1.36167e-014 7.95139e-015
rhumerus -38.4835 8.18075 -81.116
rradius 38.9756
rwrist 12.7501
rhand -6.34841 -52.6238
rfingers 7.12502
rthumb 19.4974 -81.6662
lclavicle 1.36167e-014 7.95139e-015
lhumerus -43.023 7.97312 75.4873
lradius 40.8043
lwrist -8.61689
lhand -4.62303 -32.5525
lfingers 7.12502
lthumb 21.1556 -3.6868
rfemur -1.20063 17.1486 34.8144
rtibia 18.7356
rfoot -16.4048 -34.0112
rtoes 18.6872
lfemur -23.7527 1.96903 -17.5412
ltibia 59.3537
lfoot -14.1188 10.0922
ltoes -23.4789
1168
root 21.5176 15.4553 -15.6542 360.74 -35.6259 360.59
lowerback 8.45245 0.097548 2.12799
upperback -3.90006 0.424877 0.501802
thorax -8.88034 0.0962763 -0.731877
lowerneck -6.46863 -4.09228 -11.0659
upperneck 10.6188 -5.8772 12.7272
head 4.93364 -2.64991 5.43366
rclavicle -6.0356e-014 -1.15295e-014
rhumerus -37.731 8.52988 -81.6599
rradius 39.3042
rwrist 12.2147
rhand -6.89912 -52.0731
rfingers 7.12502
rthumb 18.9678 -81.1683
lclavicle -6.0356e-014 -1.15295e-014
lhumerus -43.3406 8.34202 75.0739
lradius 39.9786
lwrist -8.98978
lhand -4.55992 -32.4187
lfingers 7.12502
lthumb 21.2162 -3.55977
rfemur -0.4454 17.1446 35.0462
rtibia 18.7269
rfoot -17.2313 -34.0066
rtoes 19.3255
lfemur -24.4582 0.930188 -17.5556
ltibia 57.9469
lfoot -14.9712 11.2424
ltoes -25.6067
1169
root 21.4514 15.4435 -15.529 360.829 -35.7511 360.471
lowerback 8.22397 0.0901534 2.52778
upperback -3.73008 0.442319 0.362432
thorax -8.55872 0.0825627 -1.10594
lowerneck -7.02471 -4.05723 -10.6605
upperneck 10.9214 -5.81819 12.467
head 5.09507 -2.59717 5.27985
rclavicle -6.41329e-014 -1.82882e-014
rhumerus -36.94 8.80371 -82.0273
rradius 39.788
rwrist 12.4435
rhand -6.75718 -53.0546
rfingers 7.12502
rthumb 19.1043 -82.1363
lclavicle -6.41329e-014 -1.82882e-014
lhumerus -43.8463 8.89508 74.5857
lradius 39.671
lwrist -9.51412
lhand -3.96799 -31.8699
lfingers 7.12502
lthumb 21.7847 -3.07592
rfemur 0.354553 17.0976 35.2803
rtibia 18.4167
rfoot -17.8836 -33.8884
rtoes 19.98
lfemur -25.2469 -0.151805 -17.4833
ltibia 56.3809
lfoot -15.8649 11.8809
ltoes -19.7301
1170
root 21.3831 15.4368 -15.4173 361.103 -36.1709 360.331
lowerback 8.19085 0.199902 2.66072
upperback -3.76892 0.603778 0.353611
thorax -8.57446 0.152713 -1.21474
lowerneck -6.85176 -3.99165 -10.672
upperneck 10.8769 -5.73251 12.4231
head 5.04013 -2.56447 5.27631
rclavicle -6.30769e-014 -3.97569e-015
rhumerus -36.3426 9.08778 -82.1732
rradius 40.1055
rwrist 12.8665
rhand -5.15878 -53.1809
rfingers 7.12502
rthumb 20.6408 -82.1034
lclavicle -6.30769e-014 -3.97569e-015
lhumerus -44.639 9.53757 74.1636
lradius 39.4512
lwrist -10.1982
lhand -3.61907 -31.3737
lfingers 7.12502
lthumb 22.1197 -2.61899
rfemur 1.06044 17.3822 35.5035
rtibia 17.8549
rfoot -17.8455 -33.7773
rtoes 19.5548
lfemur -26.149 -0.928754 -17.2957
ltibia 54.6558
lfoot -16.1665 12.8004
ltoes -19.8423
